PathFileType  4	(X/Y/Z) C:\Users\antoi\Documents\MyRepositories\mobilecap\ResultsAnalysis
DataRate	CameraRate	NumFrames	NumMarkers	Units	OrigDataRate	OrigDataStartFrame	OrigNumFrames
100.0	100.0	7	51	mm	100.0	66	130
Frame#	Time	r_knee			r_shank_antsup			r_ankle			r_calc			r_5meta			r_toe			L_knee			L_shank_antsup			L_ankle			L_calc			L_5meta			L_toe			r_sh2			r_sh3			r_sh4			L_sh2			L_sh3			r_thigh1			r_thigh2			r_thigh3			r_thigh4			r_thigh5			L_thigh1			L_thigh2			L_thigh3			L_thigh4			r.ASIS			r.PSIS			L.ASIS			L.PSIS			C7			R_Shoulder			L_Shoulder			R_Sternum			L_Sternum			R_humerus			R_elbow_med			R_elbow_lat			R_forearm			R_wrist_radius			R_wrist_ulna			L_humerus			L_elbow_med			L_elbow_lat			L_forearm			L_wrist_radius			L_wrist_ulna			R_HJC			L_HJC			R_HJC_reg			L_HJC_reg			
		X1	Y1	Z1	X2	Y2	Z2	X3	Y3	Z3	X4	Y4	Z4	X5	Y5	Z5	X6	Y6	Z6	X7	Y7	Z7	X8	Y8	Z8	X9	Y9	Z9	X10	Y10	Z10	X11	Y11	Z11	X12	Y12	Z12	X13	Y13	Z13	X14	Y14	Z14	X15	Y15	Z15	X16	Y16	Z16	X17	Y17	Z17	X18	Y18	Z18	X19	Y19	Z19	X20	Y20	Z20	X21	Y21	Z21	X22	Y22	Z22	X23	Y23	Z23	X24	Y24	Z24	X25	Y25	Z25	X26	Y26	Z26	X27	Y27	Z27	X28	Y28	Z28	X29	Y29	Z29	X30	Y30	Z30	X31	Y31	Z31	X32	Y32	Z32	X33	Y33	Z33	X34	Y34	Z34	X35	Y35	Z35	X36	Y36	Z36	X37	Y37	Z37	X38	Y38	Z38	X39	Y39	Z39	X40	Y40	Z40	X41	Y41	Z41	X42	Y42	Z42	X43	Y43	Z43	X44	Y44	Z44	X45	Y45	Z45	X46	Y46	Z46	X47	Y47	Z47	X48	Y48	Z48	X49	Y49	Z49	X50	Y50	Z50	X51	Y51	Z51	

66	0.65000000	510.84670	432.69428	-90.98724	466.70849	371.95050	-69.79040	235.85256	174.04100	-130.49906	167.00714	195.99227	-173.32556	266.86608	59.73225	-112.62828	315.04215	52.21624	-166.44171	777.08673	451.06926	-345.27806	819.02771	394.97966	-340.76578	839.73856	87.02332	-314.18833	774.60469	55.08254	-270.20556	938.92896	47.96918	-333.06651	982.51374	82.58600	-278.88877	384.69816	293.94880	-75.01269	416.28827	423.28897	-92.29013	329.12504	348.62018	-102.81679	734.14521	381.92097	-370.11566	764.51417	263.41163	-366.73041	667.68505	720.83238	-84.01703	647.96212	608.90081	-76.30177	589.95423	598.30935	-46.38869	564.39969	738.57575	-37.29378	537.85377	625.80695	-51.41576	742.97388	737.70409	-378.41525	788.99593	607.33640	-361.24797	637.97314	697.55048	-407.03606	691.95141	566.37499	-384.27805	683.46757	873.57031	-87.83371	507.92896	894.25172	-181.52379	708.50351	883.99558	-346.77386	513.46517	886.51712	-289.27980	556.80253	1366.25403	-232.82264	616.32749	1307.66986	-81.31039	607.44614	1306.46282	-399.53123	672.57290	1279.46145	-216.28055	670.20033	1278.77649	-261.28482	665.20898	1079.17145	4.52456	633.34840	962.41473	-31.75482	661.02195	992.59162	30.75232	757.77560	915.36093	19.75468	832.48411	825.92033	3.08075	807.07828	801.12529	29.74081	621.80653	1174.12392	-454.24615	533.21222	975.24193	-410.30006	534.07003	988.35205	-472.37998	540.82394	889.11000	-512.96840	508.34112	766.51283	-519.72412	472.59215	774.76996	-524.35133	622.26142	799.07406	-126.57209	644.91943	807.32974	-325.40694	623.89118	805.62008	-122.18258	632.68796	793.32062	-293.34192	
67	0.66000000	536.07249	430.35179	-89.34754	489.88786	371.62485	-67.65680	252.54352	182.73852	-129.10685	188.26276	211.97856	-172.72970	272.39205	65.43778	-112.85038	320.38344	53.68239	-165.76148	790.89399	452.57612	-346.90642	831.39894	395.02486	-342.09998	841.81852	86.87033	-314.44577	775.66666	55.95307	-270.25911	940.21423	45.28234	-333.22211	985.05119	78.00173	-278.71380	404.95868	296.76859	-73.44464	442.00712	424.49121	-91.94724	352.13249	353.24605	-102.88882	746.68250	384.24584	-372.48847	773.68208	265.05053	-368.64175	685.77560	721.68086	-85.86989	669.41550	609.23899	-76.63628	611.54205	597.42563	-46.42719	582.20240	737.24543	-39.06388	558.76896	623.74223	-51.77382	758.07850	739.97959	-380.08668	803.71386	609.39079	-363.29282	652.93442	700.28655	-408.95223	706.46411	568.85034	-386.52880	698.94016	874.57148	-89.40866	523.35703	894.84682	-182.27652	723.94070	886.43709	-347.99754	528.75613	888.30785	-290.28541	571.54454	1367.56441	-234.73940	630.05089	1309.22966	-82.66148	623.25982	1307.76724	-401.11968	687.20943	1281.02780	-217.53300	685.16450	1280.33874	-262.53616	676.38920	1079.93344	3.18379	644.51083	963.61886	-34.42669	671.20860	993.23066	28.78990	766.88163	914.33552	19.60158	840.21673	823.54571	4.26077	813.79558	799.15057	30.27980	638.66892	1175.31904	-455.63035	550.84181	975.95442	-411.80297	552.10432	988.92532	-473.95551	560.22360	889.59649	-514.17047	529.13823	766.61790	-520.87754	493.33788	774.50200	-525.62078	638.07670	799.98526	-128.26742	660.46025	809.54142	-327.06823	640.11584	805.83815	-124.35331	648.67180	795.46820	-295.45821	
68	0.67000000	562.58353	427.99015	-87.65798	514.78922	371.25339	-65.54534	271.23807	191.62445	-127.66414	212.16435	227.85431	-172.07460	279.72755	72.40042	-112.90519	327.46329	56.22023	-164.68924	803.82878	454.17235	-348.55628	842.68158	395.17911	-343.50819	843.13486	86.95856	-314.75343	776.29909	56.49610	-270.35489	940.96933	43.64818	-333.36328	986.68872	74.75122	-278.49009	427.12806	299.54498	-71.89788	469.42821	425.51628	-91.41593	376.94481	357.72655	-102.69702	758.14429	386.67784	-374.86857	781.74964	266.87450	-370.51196	703.86415	722.85085	-87.71852	691.41444	609.95021	-76.90501	633.71580	596.71311	-46.38058	599.98974	735.82103	-40.72472	580.26686	621.53852	-52.01943	772.77630	742.55888	-381.73008	817.92986	611.63210	-365.33122	667.48320	703.30943	-410.97217	720.46476	571.56181	-388.91639	713.90951	875.83426	-91.08130	538.31742	895.61361	-182.92022	738.85787	889.32120	-349.37628	543.57821	890.37104	-291.12527	586.27451	1369.18188	-236.54083	643.69343	1311.13189	-83.94230	639.10051	1309.46916	-402.55372	701.76663	1282.86605	-218.63673	700.07354	1282.17422	-263.62997	687.42485	1081.05363	1.84409	655.51153	965.26935	-37.16347	681.11092	994.24969	26.79451	775.59755	913.59654	19.57452	847.37529	821.34694	5.63462	819.76076	797.39295	30.78839	655.60799	1176.93828	-456.88690	568.65044	977.05136	-413.32654	570.38365	989.83265	-475.49662	580.19798	890.40644	-515.28527	550.84790	766.97170	-521.90530	514.95643	774.41398	-526.85044	653.52726	801.13318	-130.03468	675.49370	812.14256	-328.80006	655.91426	806.26080	-126.70780	664.23367	797.96584	-297.79248	
69	0.68000000	590.11796	425.80490	-86.02434	541.19252	370.93751	-63.59272	291.79116	200.61297	-126.31522	238.05990	243.01052	-171.53488	289.52294	80.52704	-112.64924	336.89519	59.99637	-163.17192	815.58901	455.67223	-350.19336	852.69931	395.32737	-344.97688	843.94887	87.16472	-315.11237	776.64676	56.82857	-270.49264	941.39787	42.71362	-333.49948	987.70503	72.52100	-278.28872	451.04219	302.29220	-70.43864	498.24522	426.49291	-90.69970	403.29526	362.06016	-102.20760	768.28820	388.99902	-377.06237	788.63513	268.69119	-372.19841	721.76531	724.34772	-89.47000	713.66776	611.09844	-77.12395	656.17960	596.28133	-46.28718	617.61429	734.37405	-42.24418	602.11133	619.33066	-52.22131	787.03839	745.15968	-383.29479	831.40930	613.71111	-367.28988	681.54239	706.49122	-412.97745	733.66545	574.31765	-391.27974	728.37923	877.29778	-92.80933	552.80431	896.49264	-183.48812	753.31537	892.52553	-350.87267	557.97556	892.60180	-291.81616	600.95475	1371.04445	-238.21268	657.23684	1313.30624	-85.15230	654.95511	1311.50398	-403.81060	716.22238	1284.90444	-219.57005	714.89338	1284.20582	-264.54608	698.35561	1082.48601	0.52188	666.34851	967.31555	-39.90500	690.76981	995.60549	24.79332	783.96446	913.13146	19.68065	853.99321	819.32305	7.18366	825.01396	795.87130	31.22957	672.60848	1178.92820	-457.96807	586.61781	978.47806	-414.85902	588.88419	991.03116	-477.00062	600.71161	891.51162	-516.31348	573.44076	767.57379	-522.80460	537.42267	774.49450	-528.03937	668.60504	802.45641	-131.83759	690.06840	815.01726	-330.56254	671.25767	806.84694	-129.21058	679.42534	800.70254	-300.30387	
70	0.69000000	618.39419	424.02385	-84.52183	568.80805	370.80840	-61.91049	314.00913	209.63084	-125.20429	265.14345	256.91154	-171.28375	302.43867	89.58470	-111.94094	349.31611	65.04835	-161.20127	825.96439	456.91375	-351.76444	861.35275	395.36057	-346.48787	844.48518	87.38851	-315.49062	776.83400	57.05227	-270.65903	941.65928	42.17970	-333.63744	988.34954	70.98623	-278.15067	476.45802	305.05386	-69.12366	528.08410	427.59442	-89.78829	430.86363	366.27802	-101.41246	776.94838	391.02521	-378.89120	794.29985	270.32306	-373.58362	739.30589	726.18517	-91.04117	735.87941	612.75446	-77.30394	678.63399	596.25429	-46.17444	634.95541	733.03108	-43.63068	624.05257	617.31268	-52.45737	800.85669	747.51072	-384.74652	843.96239	615.32369	-369.11452	695.05163	709.70610	-414.84767	745.83123	576.94961	-393.45376	742.38307	878.92394	-94.51455	566.84750	897.44038	-184.05866	767.41067	895.88403	-352.40296	572.01683	894.89804	-292.42668	615.54091	1373.08471	-239.74606	670.66295	1315.67375	-86.28471	670.80942	1313.78986	-404.87830	730.55073	1287.06522	-220.32142	729.59660	1286.35468	-265.27168	709.20764	1084.16580	-0.75774	677.01285	969.67873	-42.58544	700.23187	997.22992	22.81393	792.01874	912.90799	19.91919	860.11612	817.46233	8.88398	829.63828	794.58822	31.59223	689.66521	1181.22016	-458.82709	604.70831	980.15959	-416.39026	607.57447	992.46321	-478.47501	621.71498	892.87196	-517.25723	596.86601	768.41915	-523.58273	560.71473	774.71418	-529.18456	683.30260	803.91294	-133.61770	704.27989	818.02019	-332.29322	686.15580	807.56115	-131.76996	694.31837	803.55385	-302.88900	
71	0.70000000	647.13496	422.87444	-83.19041	597.31000	371.00054	-60.56417	337.68022	218.57739	-124.42789	292.63872	269.17253	-171.42265	318.99321	99.20868	-110.68429	365.26675	71.24675	-158.81638	834.88066	457.80239	-353.20083	868.63694	395.21144	-347.99845	844.90061	87.57007	-315.83648	776.94680	57.23662	-270.83208	941.85255	41.84358	-333.77497	988.80805	69.87748	-278.07840	503.07610	307.89016	-68.00968	558.55178	428.99681	-88.66786	459.31386	370.43516	-100.34141	784.07680	392.64959	-380.22934	798.77164	271.65411	-374.58553	756.37238	728.38807	-92.37662	757.79295	614.98404	-77.44017	700.82622	596.75008	-46.05524	651.94834	731.95097	-44.93175	645.85561	615.70509	-52.79385	814.24326	749.42788	-386.06438	855.50366	616.30143	-370.75803	707.98687	712.85390	-416.48891	756.85870	579.35469	-395.30498	755.97371	880.69801	-96.09934	580.50273	898.43813	-184.74018	781.23577	899.20291	-353.85708	585.77778	897.17464	-293.06483	629.99272	1375.23957	-241.13845	683.95411	1318.15334	-87.32596	686.65113	1316.23796	-405.75586	744.72491	1289.27455	-220.88986	744.16016	1288.54964	-265.80228	719.99233	1086.01582	-1.96540	687.49663	972.25955	-45.13668	709.54747	999.03854	20.88405	799.79086	912.87797	20.28067	865.80364	815.74721	10.70866	833.76220	793.52525	31.90095	706.78462	1183.73653	-459.42477	622.87574	982.00791	-417.91727	626.42330	994.05972	-479.93484	643.14892	894.43932	-518.11737	621.04752	769.49804	-524.25121	584.81159	775.02950	-530.28100	697.60488	805.48340	-135.30480	718.23560	820.99200	-333.91983	700.63841	808.37819	-134.25415	708.97336	806.39334	-305.39953	
72	0.71000000	676.08737	422.55215	-82.04040	626.37126	371.63816	-59.56190	362.60815	227.28188	-124.00350	319.98120	279.58744	-171.93642	339.41674	108.93364	-108.87164	385.04781	78.28359	-156.11001	842.40118	458.32986	-354.43697	874.64100	394.87737	-349.44329	845.28378	87.69239	-316.10310	777.03540	57.41716	-270.98818	942.02412	41.59457	-333.90387	989.19651	69.00968	-278.04981	530.57508	310.86692	-67.14837	589.27758	430.84045	-87.34977	488.32631	374.59559	-99.07319	789.75914	393.86334	-381.03191	802.15671	272.65823	-375.16849	772.95080	730.99855	-93.45891	779.22416	617.83817	-77.51378	722.58528	597.86226	-45.93184	668.59555	731.28993	-46.21156	667.32942	614.70759	-53.27067	827.21385	750.84580	-387.23063	866.06260	616.64118	-372.16978	720.36583	715.87286	-417.85543	766.80109	581.50852	-396.76107	769.21393	882.62510	-97.47362	593.84090	899.49649	-185.64090	794.84695	902.29160	-355.12806	599.32737	899.37803	-293.85091	644.28484	1377.45794	-242.39406	697.09350	1320.66861	-88.25786	702.47002	1318.76479	-406.45147	758.72130	1291.47501	-221.28361	758.56371	1290.73821	-266.14301	730.70670	1087.95489	-3.07261	697.79650	974.94918	-47.49623	718.76585	1000.94362	19.03192	807.30628	912.98358	20.74938	871.12653	814.15910	12.63229	837.54504	792.64491	32.21127	723.97731	1186.39467	-459.73888	641.07401	983.93016	-419.44793	645.40620	995.74741	-481.39790	664.95295	896.16307	-518.89180	645.89006	770.79620	-524.81601	609.68546	775.39005	-531.32183	711.49248	807.17047	-136.83211	732.02264	823.78525	-335.37721	714.74136	809.28658	-136.52399	723.42112	809.11121	-307.67710	
